<mxfile host="Electron" modified="2023-09-29T05:28:57.266Z" agent="Mozilla/5.0 (Macintosh; Intel Mac OS X 10_15_7) AppleWebKit/537.36 (KHTML, like Gecko) draw.io/21.6.8 Chrome/114.0.5735.289 Electron/25.5.0 Safari/537.36" etag="peU28hmssUnichgl9N0R" version="21.6.8" type="device">
  <diagram name="第 1 页" id="bwwv3f9Bdr-V0rVipdKC">
    <mxGraphModel dx="1026" dy="1912" grid="1" gridSize="10" guides="1" tooltips="1" connect="1" arrows="1" fold="1" page="1" pageScale="1" pageWidth="827" pageHeight="1169" math="0" shadow="0">
      <root>
        <mxCell id="0" />
        <mxCell id="1" parent="0" />
        <mxCell id="LSbGKgWUOJYDXJdjnArR-4" style="edgeStyle=orthogonalEdgeStyle;rounded=0;orthogonalLoop=1;jettySize=auto;html=1;exitX=1;exitY=0.5;exitDx=0;exitDy=0;entryX=0;entryY=0.5;entryDx=0;entryDy=0;shape=link;dashed=1;" parent="1" source="LSbGKgWUOJYDXJdjnArR-1" target="LSbGKgWUOJYDXJdjnArR-3" edge="1">
          <mxGeometry relative="1" as="geometry" />
        </mxCell>
        <mxCell id="LSbGKgWUOJYDXJdjnArR-1" value="Admission Controller" style="rounded=0;whiteSpace=wrap;html=1;fillColor=#f5f5f5;fontColor=#333333;strokeColor=#666666;" parent="1" vertex="1">
          <mxGeometry x="240" y="120" width="160" height="40" as="geometry" />
        </mxCell>
        <mxCell id="LSbGKgWUOJYDXJdjnArR-5" style="edgeStyle=orthogonalEdgeStyle;rounded=0;orthogonalLoop=1;jettySize=auto;html=1;exitX=0.5;exitY=0;exitDx=0;exitDy=0;entryX=0.5;entryY=1;entryDx=0;entryDy=0;shape=link;dashed=1;" parent="1" source="LSbGKgWUOJYDXJdjnArR-2" target="LSbGKgWUOJYDXJdjnArR-1" edge="1">
          <mxGeometry relative="1" as="geometry" />
        </mxCell>
        <mxCell id="LSbGKgWUOJYDXJdjnArR-13" style="edgeStyle=orthogonalEdgeStyle;orthogonalLoop=1;jettySize=auto;html=1;exitX=0.75;exitY=1;exitDx=0;exitDy=0;curved=1;strokeColor=#FF3333;" parent="1" source="LSbGKgWUOJYDXJdjnArR-2" edge="1">
          <mxGeometry relative="1" as="geometry">
            <mxPoint x="460" y="340" as="targetPoint" />
          </mxGeometry>
        </mxCell>
        <mxCell id="LSbGKgWUOJYDXJdjnArR-2" value="SVC&amp;nbsp; vpa-webhook" style="rounded=0;whiteSpace=wrap;html=1;fillColor=#fff2cc;strokeColor=#d6b656;" parent="1" vertex="1">
          <mxGeometry x="240" y="240" width="160" height="40" as="geometry" />
        </mxCell>
        <mxCell id="LSbGKgWUOJYDXJdjnArR-15" style="edgeStyle=orthogonalEdgeStyle;orthogonalLoop=1;jettySize=auto;html=1;exitX=0;exitY=1;exitDx=0;exitDy=0;entryX=0.75;entryY=0;entryDx=0;entryDy=0;curved=1;endArrow=none;endFill=0;strokeColor=#FF3333;" parent="1" source="LSbGKgWUOJYDXJdjnArR-3" target="LSbGKgWUOJYDXJdjnArR-2" edge="1">
          <mxGeometry relative="1" as="geometry">
            <Array as="points">
              <mxPoint x="452" y="180" />
              <mxPoint x="360" y="180" />
            </Array>
          </mxGeometry>
        </mxCell>
        <mxCell id="LSbGKgWUOJYDXJdjnArR-3" value="Admission&lt;br&gt;Server" style="ellipse;whiteSpace=wrap;html=1;aspect=fixed;" parent="1" vertex="1">
          <mxGeometry x="440" y="100" width="80" height="80" as="geometry" />
        </mxCell>
        <mxCell id="LSbGKgWUOJYDXJdjnArR-7" style="edgeStyle=orthogonalEdgeStyle;rounded=0;orthogonalLoop=1;jettySize=auto;html=1;exitX=0.5;exitY=1;exitDx=0;exitDy=0;startArrow=classic;startFill=1;endArrow=none;endFill=0;" parent="1" source="LSbGKgWUOJYDXJdjnArR-6" edge="1">
          <mxGeometry relative="1" as="geometry">
            <mxPoint x="320" y="450" as="targetPoint" />
          </mxGeometry>
        </mxCell>
        <mxCell id="LSbGKgWUOJYDXJdjnArR-11" style="edgeStyle=orthogonalEdgeStyle;rounded=0;orthogonalLoop=1;jettySize=auto;html=1;exitX=0.5;exitY=0;exitDx=0;exitDy=0;entryX=0.5;entryY=1;entryDx=0;entryDy=0;" parent="1" source="LSbGKgWUOJYDXJdjnArR-6" target="LSbGKgWUOJYDXJdjnArR-2" edge="1">
          <mxGeometry relative="1" as="geometry" />
        </mxCell>
        <mxCell id="LSbGKgWUOJYDXJdjnArR-6" value="api-server" style="rounded=0;whiteSpace=wrap;html=1;" parent="1" vertex="1">
          <mxGeometry x="240" y="360" width="160" height="40" as="geometry" />
        </mxCell>
        <mxCell id="LSbGKgWUOJYDXJdjnArR-10" value="CREATE Pod" style="text;html=1;strokeColor=none;fillColor=none;align=center;verticalAlign=middle;whiteSpace=wrap;rounded=0;" parent="1" vertex="1">
          <mxGeometry x="310" y="420" width="120" height="30" as="geometry" />
        </mxCell>
        <mxCell id="LSbGKgWUOJYDXJdjnArR-17" style="edgeStyle=orthogonalEdgeStyle;rounded=0;orthogonalLoop=1;jettySize=auto;html=1;exitX=1;exitY=0.5;exitDx=0;exitDy=0;" parent="1" source="LSbGKgWUOJYDXJdjnArR-12" edge="1">
          <mxGeometry relative="1" as="geometry">
            <mxPoint x="660" y="340" as="targetPoint" />
          </mxGeometry>
        </mxCell>
        <mxCell id="LSbGKgWUOJYDXJdjnArR-12" value="MutatingAdmissionWebhook" style="rounded=1;whiteSpace=wrap;html=1;fillColor=#e1d5e7;strokeColor=#9673a6;" parent="1" vertex="1">
          <mxGeometry x="230" y="330" width="180" height="20" as="geometry" />
        </mxCell>
        <mxCell id="LSbGKgWUOJYDXJdjnArR-14" value="JSON Patch of Resources" style="text;html=1;strokeColor=none;fillColor=none;align=center;verticalAlign=middle;whiteSpace=wrap;rounded=0;" parent="1" vertex="1">
          <mxGeometry x="410" y="270" width="110" height="30" as="geometry" />
        </mxCell>
        <mxCell id="LSbGKgWUOJYDXJdjnArR-18" value="" style="endArrow=none;dashed=1;html=1;rounded=0;strokeWidth=3;" parent="1" edge="1">
          <mxGeometry width="50" height="50" relative="1" as="geometry">
            <mxPoint x="560" y="480" as="sourcePoint" />
            <mxPoint x="560" y="80" as="targetPoint" />
          </mxGeometry>
        </mxCell>
        <mxCell id="LSbGKgWUOJYDXJdjnArR-19" value="Other steps" style="text;html=1;strokeColor=none;fillColor=none;align=center;verticalAlign=middle;whiteSpace=wrap;rounded=0;" parent="1" vertex="1">
          <mxGeometry x="560" y="340" width="100" height="30" as="geometry" />
        </mxCell>
        <mxCell id="LSbGKgWUOJYDXJdjnArR-25" style="edgeStyle=orthogonalEdgeStyle;orthogonalLoop=1;jettySize=auto;html=1;exitX=0;exitY=0.5;exitDx=0;exitDy=0;entryX=0;entryY=0.5;entryDx=0;entryDy=0;curved=1;" parent="1" source="LSbGKgWUOJYDXJdjnArR-20" target="LSbGKgWUOJYDXJdjnArR-6" edge="1">
          <mxGeometry relative="1" as="geometry">
            <Array as="points">
              <mxPoint x="170" y="20" />
              <mxPoint x="170" y="380" />
            </Array>
          </mxGeometry>
        </mxCell>
        <mxCell id="LSbGKgWUOJYDXJdjnArR-27" style="rounded=0;orthogonalLoop=1;jettySize=auto;html=1;exitX=0;exitY=1;exitDx=0;exitDy=0;entryX=0.05;entryY=0.313;entryDx=0;entryDy=0;entryPerimeter=0;endArrow=none;endFill=0;dashed=1;strokeWidth=2;" parent="1" source="LSbGKgWUOJYDXJdjnArR-20" target="LSbGKgWUOJYDXJdjnArR-3" edge="1">
          <mxGeometry relative="1" as="geometry" />
        </mxCell>
        <mxCell id="LSbGKgWUOJYDXJdjnArR-28" style="rounded=0;orthogonalLoop=1;jettySize=auto;html=1;exitX=1;exitY=1;exitDx=0;exitDy=0;entryX=1;entryY=0;entryDx=0;entryDy=0;endArrow=none;endFill=0;dashed=1;strokeWidth=2;" parent="1" source="LSbGKgWUOJYDXJdjnArR-20" target="LSbGKgWUOJYDXJdjnArR-3" edge="1">
          <mxGeometry relative="1" as="geometry" />
        </mxCell>
        <mxCell id="LSbGKgWUOJYDXJdjnArR-20" value="" style="rounded=0;whiteSpace=wrap;html=1;dashed=1;strokeWidth=2;" parent="1" vertex="1">
          <mxGeometry x="300" y="-40" width="240" height="120" as="geometry" />
        </mxCell>
        <mxCell id="LSbGKgWUOJYDXJdjnArR-22" value="VPA1" style="rounded=0;whiteSpace=wrap;html=1;labelPosition=center;verticalLabelPosition=middle;align=center;verticalAlign=middle;" parent="1" vertex="1">
          <mxGeometry x="319" y="-20" width="50" height="60" as="geometry" />
        </mxCell>
        <mxCell id="LSbGKgWUOJYDXJdjnArR-30" style="edgeStyle=orthogonalEdgeStyle;orthogonalLoop=1;jettySize=auto;html=1;exitX=1;exitY=0;exitDx=0;exitDy=0;entryX=0;entryY=0.5;entryDx=0;entryDy=0;curved=1;strokeColor=#FF3333;" parent="1" source="LSbGKgWUOJYDXJdjnArR-23" target="LSbGKgWUOJYDXJdjnArR-29" edge="1">
          <mxGeometry relative="1" as="geometry">
            <Array as="points">
              <mxPoint x="379" y="-20" />
              <mxPoint x="399" y="-20" />
              <mxPoint x="399" y="20" />
            </Array>
          </mxGeometry>
        </mxCell>
        <mxCell id="LSbGKgWUOJYDXJdjnArR-23" value="VPA1" style="rounded=0;whiteSpace=wrap;html=1;labelPosition=center;verticalLabelPosition=middle;align=center;verticalAlign=middle;fillColor=#d80073;fontColor=#ffffff;strokeColor=#A50040;" parent="1" vertex="1">
          <mxGeometry x="329" y="-10" width="50" height="60" as="geometry" />
        </mxCell>
        <mxCell id="LSbGKgWUOJYDXJdjnArR-24" value="VPA1" style="rounded=0;whiteSpace=wrap;html=1;labelPosition=center;verticalLabelPosition=middle;align=center;verticalAlign=middle;" parent="1" vertex="1">
          <mxGeometry x="339" width="50" height="60" as="geometry" />
        </mxCell>
        <mxCell id="LSbGKgWUOJYDXJdjnArR-26" value="LIST VPA" style="text;html=1;strokeColor=none;fillColor=none;align=center;verticalAlign=middle;whiteSpace=wrap;rounded=0;" parent="1" vertex="1">
          <mxGeometry x="220" y="40" width="60" height="30" as="geometry" />
        </mxCell>
        <mxCell id="LSbGKgWUOJYDXJdjnArR-32" style="edgeStyle=orthogonalEdgeStyle;rounded=0;orthogonalLoop=1;jettySize=auto;html=1;exitX=1;exitY=0.5;exitDx=0;exitDy=0;entryX=0;entryY=0.5;entryDx=0;entryDy=0;strokeColor=#FF3333;" parent="1" source="LSbGKgWUOJYDXJdjnArR-29" target="LSbGKgWUOJYDXJdjnArR-31" edge="1">
          <mxGeometry relative="1" as="geometry" />
        </mxCell>
        <mxCell id="LSbGKgWUOJYDXJdjnArR-29" value="......&lt;br&gt;Spec:&lt;br&gt;&amp;nbsp; ......&lt;br style=&quot;font-size: 6px;&quot;&gt;&amp;nbsp; Recommend:&lt;br style=&quot;font-size: 6px;&quot;&gt;&amp;nbsp; &amp;nbsp; &amp;nbsp;upperBound&lt;br style=&quot;font-size: 6px;&quot;&gt;&amp;nbsp; &amp;nbsp; &amp;nbsp;lowerBound&lt;br style=&quot;font-size: 6px;&quot;&gt;&amp;nbsp; &amp;nbsp; &amp;nbsp;target" style="rounded=0;whiteSpace=wrap;html=1;labelPosition=center;verticalLabelPosition=middle;align=left;verticalAlign=middle;fontSize=6;fillColor=#f8cecc;strokeColor=#b85450;" parent="1" vertex="1">
          <mxGeometry x="414" y="-10" width="50" height="60" as="geometry" />
        </mxCell>
        <mxCell id="LSbGKgWUOJYDXJdjnArR-33" style="edgeStyle=orthogonalEdgeStyle;orthogonalLoop=1;jettySize=auto;html=1;exitX=1;exitY=0.5;exitDx=0;exitDy=0;curved=1;endArrow=none;endFill=0;strokeColor=#FF3333;" parent="1" source="LSbGKgWUOJYDXJdjnArR-31" target="LSbGKgWUOJYDXJdjnArR-3" edge="1">
          <mxGeometry relative="1" as="geometry" />
        </mxCell>
        <mxCell id="LSbGKgWUOJYDXJdjnArR-31" value="To Patches" style="shape=step;perimeter=stepPerimeter;whiteSpace=wrap;html=1;fixedSize=1;size=0;" parent="1" vertex="1">
          <mxGeometry x="490" y="10" width="70" height="20" as="geometry" />
        </mxCell>
      </root>
    </mxGraphModel>
  </diagram>
</mxfile>
